<svg width="213" height="43" viewBox="0 0 213 43" fill="none" xmlns="http://www.w3.org/2000/svg">
<path d="M60.4622 13.1776C60.4134 9.0779 57.8267 5.61268 54.1662 4.29492C53.2877 3.95328 52.3604 4.49014 52.214 5.41746C51.8235 7.22328 50.7986 9.22432 48.6023 11.1278C48.944 11.8598 49.0904 12.6895 49.0904 13.4216C49.0904 13.9097 49.0416 14.3489 48.9928 14.7882L48.6999 16.106L47.8702 15.9107L48.0167 14.6906C48.0167 14.3001 48.0167 13.8609 47.9679 13.5192C47.8702 12.7383 47.6262 12.0551 47.187 11.5182C46.7477 10.9813 46.1132 10.6397 45.43 10.4445C45.0883 10.3469 44.6979 10.298 44.3562 10.2492C43.917 10.7861 43.2825 11.1278 42.5504 11.1278C41.2326 11.1278 40.1589 10.054 40.1589 8.73626C40.1589 7.4185 41.2326 6.34477 42.5504 6.34477C43.7705 6.34477 44.7955 7.27208 44.8931 8.44343C45.2835 8.54104 45.6252 8.63865 46.0156 8.78507C46.5037 8.98029 46.9429 9.22432 47.3822 9.56596C49.6761 7.61372 50.4082 5.56388 50.457 3.80686C50.457 2.97716 50.0665 2.24507 49.432 1.75701C47.8702 0.634476 45.9668 0 43.8682 0C42.5504 0 41.2814 0.24403 40.1101 0.732089C38.9388 1.22015 37.9138 1.90343 37.0353 2.78194C36.8401 2.97716 36.5961 3.22119 36.4009 3.46522C36.0104 3.95328 35.6688 4.44134 35.3759 4.97821C34.9855 5.66149 34.6926 6.39358 34.4974 7.17447C34.3998 7.46731 34.351 7.80895 34.3022 8.10178C34.2534 8.39462 34.2534 8.63865 34.2046 8.93149H35.1807C35.4735 8.93149 35.6688 9.17551 35.6688 9.41954V11.6646C35.6688 11.9575 35.9128 12.1527 36.1568 12.1527H38.4019C38.6947 12.1527 38.89 12.3967 38.89 12.6407V14.7882C38.89 15.081 38.6459 15.2763 38.4019 15.2763H36.1568C35.864 15.2763 35.6688 15.5203 35.6688 15.7643V18.0094C35.6688 18.3022 35.4247 18.4974 35.1807 18.4974H34.2046C34.2534 19.2783 34.6438 20.0592 35.2783 20.5473C38.7435 23.2316 43.2337 23.0852 43.2337 23.0852C43.5265 22.1091 44.4538 21.377 45.5276 21.377C46.8453 21.377 47.9191 22.4507 47.9191 23.7685C47.9191 25.0862 46.8453 26.16 45.5276 26.16C44.5514 26.16 43.6729 25.5255 43.3313 24.6958C43.3313 24.6958 40.647 24.7934 37.7674 24.2565C35.9128 23.9149 34.2046 25.2815 34.2046 27.1849V29.43H36.4497C36.7425 29.43 36.9377 29.674 36.9377 29.918V32.4071C36.9377 32.7 36.6937 32.8952 36.4497 32.8952H34.2046V33.0416C34.2046 38.3615 38.5483 42.9492 43.8682 42.9004C45.4299 42.9004 46.8453 42.51 48.1631 41.8755C48.5047 41.6803 48.8464 41.5338 49.1392 41.2898C50.2617 40.5577 50.6034 38.9959 49.8713 37.8246C49.5785 37.3365 49.188 36.9461 48.7487 36.6044C48.2607 36.3116 47.7238 36.0676 47.1382 35.9212C45.9668 35.6771 44.6491 35.7747 43.3313 36.0676L43.0385 34.9938C44.405 34.5546 45.8204 34.3106 47.3334 34.457C48.1143 34.5546 48.8464 34.7498 49.5785 35.1403C50.3105 35.5307 50.8962 36.0676 51.3843 36.7509C51.5307 36.9461 51.6771 37.1413 51.7747 37.3365C52.4092 38.3615 53.8246 38.8007 54.8983 38.2638C57.1922 37.1901 58.998 35.1891 59.8765 32.7976C60.2182 31.8215 59.8765 30.6989 59.0468 30.0644C58.5099 29.674 57.8755 29.0883 57.241 28.3074C56.8993 27.8682 56.6065 27.3313 56.3137 26.8433C56.2649 26.6968 56.2161 26.5992 56.1673 26.4528C55.4352 26.7945 54.6055 26.9409 53.7758 26.8921C53.2877 26.8921 52.8484 26.7944 52.3604 26.7456L50.9938 26.404L51.6771 24.5494L52.7997 24.9398C53.1413 24.9886 53.5317 25.1351 53.9222 25.1351C54.6543 25.2327 55.3376 25.1351 55.972 24.8422C56.6065 24.5494 57.0946 24.0125 57.485 23.3292C57.8266 22.6948 58.0707 21.8651 58.1683 21.133L59.1932 21.1818C59.1444 22.1579 58.998 23.0364 58.6076 23.9149C58.3635 24.5494 57.9731 25.1351 57.4362 25.6231C57.5338 25.7695 57.5826 25.9648 57.6802 26.1112C57.9243 26.5016 58.2171 26.8921 58.5587 27.2337C58.9492 27.673 59.5837 28.1122 60.267 28.405C61.0478 28.7467 61.9264 28.5515 62.512 27.917C64.0738 26.2088 65.0011 23.9637 65.0011 21.4746C65.0499 17.9118 63.1953 14.8858 60.4622 13.1776Z" fill="white"/>
<path d="M37.4258 11.4694H35.1319C34.8391 11.4694 34.6438 11.2253 34.6438 10.9813V8.73623C34.6438 8.44339 34.3998 8.24817 34.1558 8.24817H32.0083C31.7155 8.24817 31.5203 8.4922 31.5203 8.73623V10.9813C31.5203 11.2741 31.2762 11.4694 31.0322 11.4694H28.7871C28.4943 11.4694 28.2991 11.7134 28.2991 11.9574V14.1049C28.2991 14.3977 28.5431 14.5929 28.7871 14.5929H31.0322C31.325 14.5929 31.5203 14.837 31.5203 15.081V17.3261C31.5203 17.6189 31.7643 17.8141 32.0083 17.8141H34.1558C34.4486 17.8141 34.6438 17.5701 34.6438 17.3261V15.081C34.6438 14.7882 34.8879 14.5929 35.1319 14.5929H37.377C37.6698 14.5929 37.865 14.3489 37.865 14.1049V11.9574C37.9138 11.6646 37.6698 11.4694 37.4258 11.4694Z" fill="white"/>
<path d="M22.5888 25.6719H21.1734C20.8806 25.6719 20.6854 25.4279 20.6854 25.1838V23.7685C20.6854 23.4756 20.4413 23.2804 20.1973 23.2804H18.8795C18.5867 23.2804 18.3915 23.5244 18.3915 23.7685V25.1838C18.3915 25.4767 18.1475 25.6719 17.9034 25.6719H16.4881C16.1952 25.6719 16 25.9159 16 26.1599V27.4777C16 27.7705 16.244 27.9658 16.4881 27.9658H17.9034C18.1963 27.9658 18.3915 28.2098 18.3915 28.4538V29.8692C18.3915 30.162 18.6355 30.3573 18.8795 30.3573H20.1973C20.4901 30.3573 20.6854 30.1132 20.6854 29.8692V28.4538C20.6854 28.161 20.9294 27.9658 21.1734 27.9658H22.5888C22.8816 27.9658 23.0769 27.7217 23.0769 27.4777V26.1599C23.0769 25.8671 22.8816 25.6719 22.5888 25.6719Z" fill="white"/>
<path d="M26.054 21.865V19.8152C26.054 19.5223 26.298 19.3271 26.5421 19.3271H28.5919C28.8847 19.3271 29.08 19.0831 29.08 18.8391V16.8868C29.08 16.594 28.8359 16.3988 28.5919 16.3988H26.5421C26.2492 16.3988 26.054 16.1547 26.054 15.9107V13.8609C26.054 13.568 25.81 13.3728 25.5659 13.3728H23.6137C23.3209 13.3728 23.1256 13.6168 23.1256 13.8609V15.9107C23.1256 16.2035 22.8816 16.3988 22.6376 16.3988H20.5877C20.2949 16.3988 20.0997 16.6428 20.0997 16.8868V18.8391C20.0997 19.1319 20.3437 19.3271 20.5877 19.3271H22.6376C22.9304 19.3271 23.1256 19.5712 23.1256 19.8152V21.865C23.1256 22.1579 23.3697 22.3531 23.6137 22.3531H25.5659C25.81 22.3531 26.054 22.1091 26.054 21.865Z" fill="white"/>
<path d="M35.4247 28.649H32.838C32.5452 28.649 32.35 28.405 32.35 28.161V25.5742C32.35 25.2814 32.1059 25.0862 31.8619 25.0862H29.3728C29.08 25.0862 28.8847 25.3302 28.8847 25.5742V28.161C28.8847 28.4538 28.6407 28.649 28.3967 28.649H25.81C25.5171 28.649 25.3219 28.893 25.3219 29.1371V31.6262C25.3219 31.919 25.5659 32.1142 25.81 32.1142H28.3967C28.6895 32.1142 28.8847 32.3583 28.8847 32.6023V35.189C28.8847 35.4818 29.1288 35.6771 29.3728 35.6771H31.8619C32.1547 35.6771 32.35 35.433 32.35 35.189V32.6023C32.35 32.3095 32.594 32.1142 32.838 32.1142H35.4247C35.7176 32.1142 35.9128 31.8702 35.9128 31.6262V29.1371C35.9128 28.8442 35.6688 28.649 35.4247 28.649Z" fill="white"/>
<path d="M92.8453 31.2114C92.8453 31.6507 92.6015 31.8459 92.114 31.8459H88.6528C88.2629 31.8459 87.8729 31.6995 87.4341 31.4555C86.9954 31.2114 86.6541 30.8698 86.4104 30.4793L83.9729 26.6237C82.9492 25.0619 81.7305 24.2322 80.3167 24.2322H76.8068V30.4793C76.8068 30.8698 76.6605 31.1626 76.4168 31.4555C76.173 31.6995 75.8318 31.8459 75.4418 31.8459H72.7118C72.3218 31.8459 72.0294 31.6995 71.7369 31.4555C71.4444 31.2114 71.3469 30.8698 71.3469 30.4793V12.47C71.3469 12.0795 71.4931 11.7867 71.7369 11.4938C71.9806 11.201 72.3218 11.1034 72.7118 11.1034H84.6554C86.8491 11.1034 88.6528 11.6891 90.0666 12.9092C91.4803 14.0806 92.1628 15.6912 92.1628 17.741C92.1628 20.5717 90.3591 22.3288 86.7029 23.012C87.2879 23.2073 87.8241 23.5977 88.3116 24.0858C88.7991 24.6226 89.3841 25.3547 90.0178 26.3308L92.6503 30.5282C92.7478 30.7234 92.8453 30.9674 92.8453 31.2114ZM76.758 20.1325H82.9004C83.8754 20.1325 84.7529 19.9373 85.5329 19.5468C86.3129 19.1564 86.6541 18.5219 86.6541 17.6434C86.6541 16.7649 86.2641 16.1304 85.5329 15.74C84.7529 15.3495 83.9242 15.1543 82.9004 15.1543H76.758V20.1325Z" fill="white"/>
<path d="M95.234 30.4306V12.4213C95.234 12.0308 95.3803 11.738 95.624 11.4451C95.9165 11.2011 96.209 11.0547 96.599 11.0547H113.271C113.661 11.0547 113.954 11.2011 114.246 11.4451C114.49 11.738 114.636 12.0308 114.636 12.4213V13.7878C114.636 14.1783 114.49 14.4711 114.246 14.7639C114.002 15.008 113.661 15.1544 113.271 15.1544H100.694V19.3517H111.565C111.955 19.3517 112.247 19.4981 112.54 19.7421C112.784 19.9862 112.93 20.3278 112.93 20.7183V22.0848C112.93 22.4753 112.784 22.7681 112.54 23.0609C112.296 23.305 111.955 23.4514 111.565 23.4514H100.694V27.7463H113.271C113.661 27.7463 113.954 27.8927 114.197 28.1368C114.441 28.3808 114.587 28.7224 114.587 29.1129V30.4794C114.587 30.8699 114.441 31.1627 114.197 31.4556C113.905 31.6996 113.612 31.846 113.222 31.846H96.599C96.209 31.846 95.9165 31.6996 95.624 31.4556C95.3803 31.1627 95.234 30.8211 95.234 30.4306Z" fill="white"/>
<path d="M117.317 30.4305V12.47C117.317 12.0795 117.464 11.7379 117.707 11.4938C117.951 11.201 118.292 11.1034 118.682 11.1034H124.581C124.971 11.1034 125.312 11.2498 125.654 11.4938C125.995 11.7867 126.238 12.0795 126.336 12.47L130.626 24.8179L134.916 12.47C135.013 12.0795 135.257 11.7867 135.598 11.4938C135.94 11.201 136.281 11.1034 136.671 11.1034H142.569C142.959 11.1034 143.252 11.2498 143.496 11.4938C143.739 11.7867 143.886 12.0795 143.886 12.47V30.4305C143.886 30.821 143.739 31.1626 143.496 31.4067C143.252 31.6507 142.911 31.7971 142.521 31.7971H139.937C139.547 31.7971 139.255 31.6507 138.962 31.4067C138.718 31.1626 138.572 30.821 138.572 30.4305V16.2768L133.453 30.5282C133.307 30.8698 133.063 31.2114 132.722 31.4555C132.381 31.6995 132.04 31.8459 131.65 31.8459H129.505C129.115 31.8459 128.773 31.6995 128.432 31.4555C128.091 31.2114 127.847 30.8698 127.701 30.5282L122.631 16.2768V30.4305C122.631 30.821 122.485 31.1626 122.241 31.4067C121.997 31.6507 121.656 31.7971 121.266 31.7971H118.682C118.292 31.7971 118 31.6507 117.707 31.4067C117.415 31.1626 117.317 30.821 117.317 30.4305Z" fill="white"/>
<path d="M148.663 30.7723C147.396 29.8938 146.762 28.6248 146.762 27.0142C146.762 25.4036 147.396 24.1347 148.663 23.2562C149.931 22.3777 151.588 21.9384 153.587 21.9384H158.364C158.364 20.8159 158.121 20.035 157.633 19.5957C157.146 19.1565 156.317 18.9125 155.147 18.9125C153.977 18.9125 153.148 19.2053 152.661 19.791C152.173 20.3766 151.588 20.6695 150.906 20.6695H148.761C148.517 20.6695 148.273 20.5719 148.127 20.4254C147.981 20.279 147.883 20.035 147.883 19.791C147.883 17.009 150.516 15.6425 155.781 15.6425C158.072 15.6425 159.924 16.1793 161.289 17.2042C162.654 18.2292 163.385 19.8398 163.385 21.9872V30.9675C163.385 31.2115 163.288 31.4556 163.142 31.602C162.995 31.7484 162.752 31.846 162.508 31.846H159.729C159.486 31.846 159.242 31.7484 159.096 31.602C158.949 31.4556 158.852 31.2115 158.852 30.9675V30.5283C157.341 31.602 155.586 32.1389 153.587 32.1389C151.588 32.0901 149.931 31.6508 148.663 30.7723ZM152.368 25.7453C151.978 26.0869 151.783 26.4774 151.783 27.0142C151.783 27.5511 151.978 27.9416 152.368 28.2832C152.758 28.6248 153.343 28.7713 154.074 28.7713C155.537 28.7713 156.999 28.332 158.364 27.4535V25.2084H153.928C153.294 25.2572 152.758 25.4036 152.368 25.7453Z" fill="white"/>
<path d="M185.859 13.5438C183.958 11.8844 180.886 11.0059 176.743 11.0059H168.65C168.26 11.0059 167.968 11.1523 167.675 11.3963C167.383 11.6891 167.285 11.982 167.285 12.4212V30.4306C167.285 30.8211 167.432 31.1139 167.675 31.3579C167.968 31.602 168.26 31.7484 168.65 31.7484H176.743C180.935 31.7484 183.958 30.9187 185.859 29.2593C187.76 27.5999 188.735 24.9644 188.735 21.4015C188.686 17.8387 187.76 15.252 185.859 13.5438ZM183.568 22.6217C183.568 22.9633 183.275 23.2561 182.934 23.2561H180.399C180.058 23.2561 179.765 23.549 179.765 23.8906V26.4285C179.765 26.7702 179.473 27.063 179.131 27.063H176.792C176.45 27.063 176.158 26.7702 176.158 26.4285V23.8418C176.158 23.5002 175.865 23.2073 175.524 23.2073H172.989C172.648 23.2073 172.355 22.9145 172.355 22.5729V20.1814C172.355 19.8397 172.648 19.5469 172.989 19.5469H175.524C175.865 19.5469 176.158 19.2541 176.158 18.9124V16.3745C176.158 16.0329 176.45 15.74 176.792 15.74H179.18C179.521 15.74 179.814 16.0329 179.814 16.3745V18.9124C179.814 19.2541 180.106 19.5469 180.448 19.5469H182.983C183.324 19.5469 183.616 19.8397 183.616 20.1814V22.6217H183.568Z" fill="white"/>
<path d="M191.368 12.9093V12.4212C191.368 11.9332 191.514 11.4939 191.806 11.2011C192.099 10.9083 192.489 10.7618 193.025 10.7618H194.829C195.316 10.7618 195.755 10.9083 196.047 11.2011C196.34 11.4939 196.486 11.8844 196.486 12.4212V12.9093C196.486 13.3974 196.34 13.8366 196.047 14.1295C195.755 14.4223 195.365 14.5687 194.829 14.5687H193.025C192.538 14.5687 192.099 14.4223 191.806 14.1295C191.514 13.8366 191.368 13.4462 191.368 12.9093ZM191.416 30.9187V17.1554C191.416 16.9114 191.514 16.6674 191.66 16.5209C191.806 16.3745 192.05 16.2769 192.294 16.2769H195.511C195.755 16.2769 195.999 16.3745 196.145 16.5209C196.291 16.6674 196.389 16.9114 196.389 17.1554V30.9187C196.389 31.1627 196.291 31.4067 196.145 31.5532C195.999 31.6996 195.755 31.7972 195.511 31.7972H192.294C192.05 31.7972 191.806 31.6996 191.66 31.5532C191.514 31.4067 191.416 31.2115 191.416 30.9187Z" fill="white"/>
</svg>
