<svg width="142" height="161" viewBox="0 0 142 161" fill="none" xmlns="http://www.w3.org/2000/svg">
<path d="M44.8541 76.5656C42.24 75.9757 40.0107 75.5199 39.5183 75.4841C34.1557 75.073 28.7035 75.645 23.5826 77.3432C-4.53784 86.7102 -1.82518 123.883 3.21519 146.952C3.40319 147.801 4.86248 155.408 5.50708 155.434C5.50708 155.434 17.3604 155.953 33.6901 156.668C34.0035 129.586 35.418 102.423 44.8541 76.5656Z" fill="#3D4260"/>
<path d="M89.6534 89.3111C87.0482 91.8138 84.1923 94.084 81.0857 95.9342C75.0247 99.5451 66.6629 101.377 59.8141 100.609C49.6976 99.4826 50.3153 86.4957 54.6932 79.2827C54.8991 78.952 49.3216 77.5577 44.8452 76.5566C35.4181 102.423 34.0035 129.586 33.6902 156.668C46.7253 157.24 62.6074 157.928 77.6031 158.589C83.3686 134.895 89.0357 111.209 91.8379 86.9068C90.7994 88.0777 89.9399 89.043 89.6534 89.3111Z" fill="white"/>
<path d="M142 109.27C142.018 103.112 140.961 96.5244 138.669 90.7951C131.982 74.0811 109.6 67.1542 96.6723 81.3298C96.4574 81.5711 93.8343 84.619 91.8378 86.8982C89.0356 111.209 83.3686 134.895 77.603 158.581C104.21 159.743 127.998 160.78 128.007 160.78C128.15 160.78 131.283 152.056 131.677 151.153C133.405 147.176 134.945 143.118 136.288 138.989C138.795 131.275 140.854 123.115 141.695 115.035C141.883 113.167 141.991 111.236 142 109.27Z" fill="#3D4260"/>
<path d="M43.4844 45.2738C43.8604 46.2928 44.2364 47.3028 44.6214 48.3217C44.8005 48.8133 45.5973 48.5988 45.4092 48.1072C45.0332 47.0883 44.6572 46.0783 44.2722 45.0593C44.0932 44.5677 43.3054 44.7733 43.4844 45.2738Z" fill="#4B3425"/>
<path d="M51.6045 93.5659C52.5177 99.5901 58.3817 101.217 63.7354 101.047C70.5037 100.824 77.066 98.6338 82.6972 94.9245C85.392 93.1458 87.8808 91.0633 90.1727 88.802C90.9248 88.0601 96.1979 81.2315 96.6634 81.3298C89.3043 79.8193 81.6319 79.5065 74.3354 79.4082C67.2091 79.3188 60.7452 79.1221 54.6932 79.292C52.1148 83.5643 50.8257 88.3998 51.6045 93.5659Z" fill="#FEAF8F"/>
<path d="M99.3223 121.774C98.0331 131.776 95.4548 141.563 91.6499 150.912C91.4529 151.403 92.2407 151.609 92.4377 151.126C96.2695 141.715 98.8389 131.856 100.137 121.774C100.209 121.256 99.385 121.256 99.3223 121.774Z" fill="#4B3425"/>
<path d="M48.8918 85.6647C47.0744 90.7862 47.0565 96.3456 48.8471 101.485C49.0172 101.977 49.8139 101.771 49.6349 101.27C47.8891 96.2562 47.907 90.8935 49.6796 85.8882C49.8497 85.3787 49.0619 85.1731 48.8918 85.6647Z" fill="#4B3425"/>
<path d="M53.6279 105.122C58.7667 107.142 64.8814 106.41 70.1098 105.167C75.7768 103.817 81.5871 101.511 85.9739 97.5967C86.3678 97.2481 85.7859 96.6671 85.392 97.0157C81.1126 100.841 75.4098 103.067 69.8859 104.381C64.7919 105.587 58.8473 106.311 53.8427 104.336C53.3593 104.139 53.1444 104.926 53.6279 105.122Z" fill="#4B3425"/>
<path d="M38.0859 53.5683C37.9247 51.9058 36.6893 50.5294 35.2568 49.7965C33.8244 49.0546 32.204 48.8491 30.6193 48.6524C27.0114 48.1966 23.4124 47.7407 19.8045 47.2938C17.4231 46.9899 14.9253 46.6414 13.0183 45.1219C11.1114 43.6025 10.1445 40.501 11.6396 38.5436C13.6182 35.9605 18.1751 37.0777 20.0283 34.3963C21.4339 32.3674 20.27 29.3911 18.4168 27.8001C16.5636 26.2091 14.1822 25.4762 12.1499 24.1445C9.1687 22.187 7.02005 18.88 6.38441 15.2601C6.26802 14.6166 6.20536 13.9373 6.40232 13.3116C6.8589 11.8815 8.58677 11.2827 9.99234 11.5955C11.4069 11.9084 12.5886 12.8647 13.7704 13.7317C15.731 15.1618 18.1661 16.431 20.4401 15.6534C22.6514 14.9026 23.9048 12.4804 24.5763 10.1655C25.2477 7.84157 25.579 5.33894 26.895 3.34577C28.3185 1.17384 30.87 -0.140047 33.3857 0.0118989C35.9014 0.154907 38.3007 1.75481 39.5004 4.07868C40.5568 6.14336 40.6642 8.56555 41.1298 10.8626C41.5864 13.1507 42.6249 15.5819 44.684 16.4935C46.197 17.1639 47.9249 16.8689 49.5722 16.8421C51.2195 16.8153 53.0995 17.2265 53.9142 18.728C54.3887 19.6129 54.3798 20.6855 54.3171 21.6955C54.0127 26.3611 52.8131 30.9105 52.3654 35.5672C51.9088 40.215 52.3028 45.2113 54.8543 49.0546L38.0859 53.5683Z" fill="#4B3425"/>
<path d="M84.8819 79.6049L49.9754 42.7C45.0514 44.2284 39.7872 42.6374 36.2241 39.0801C33.0369 48.1432 29.7781 63.6327 38.6234 75.5471L47.2896 67.0381C47.2896 67.0381 50.6916 77.7011 54.0489 88.1764C57.1913 97.9814 69.2237 101.574 77.2453 95.1123C77.3527 95.0229 77.4601 94.9425 77.5586 94.8531C84.2015 89.4724 90.7549 85.8168 84.8819 79.6049Z" fill="#FEAF8F"/>
<path d="M49.9753 42.6999L39.4291 31.5542C39.4291 31.5542 37.8355 34.4948 36.224 39.08C39.7961 42.6462 45.0514 44.2283 49.9753 42.6999Z" fill="#FEAF8F"/>
<path d="M62.8763 45.1579C62.2317 48.5543 58.9639 50.7888 55.5619 50.1453C52.1599 49.5018 49.9217 46.2394 50.5663 42.843C51.2109 39.4465 54.4786 37.212 57.8807 37.8556C61.2827 38.4902 63.5209 41.7615 62.8763 45.1579Z" fill="#FEAF8F"/>
<path d="M55.517 46.6771C56.654 44.6839 57.8 42.6997 58.9728 40.7244C59.2413 40.2685 58.5341 39.8574 58.2655 40.3132C57.0927 42.2796 55.9468 44.2728 54.8098 46.2659C54.5501 46.7307 55.2574 47.1419 55.517 46.6771Z" fill="#4B3425"/>
<path d="M47.2894 67.038L54.2904 88.5874L53.234 60.3345L47.2894 67.038Z" fill="#4B3425"/>
<path d="M34.2454 45.7657C32.804 49.5017 31.5685 53.5417 30.8971 57.4834C30.8344 57.8498 31.1657 58.0911 31.4969 57.9481C32.9562 57.2957 34.4245 56.6432 35.8837 55.9907C36.3672 55.7762 35.9464 55.0701 35.4719 55.2846C34.0126 55.9371 32.5444 56.5896 31.0851 57.242C31.2821 57.394 31.488 57.5459 31.6849 57.7068C32.3564 53.7562 33.5919 49.7162 35.0332 45.9891C35.2302 45.4975 34.4334 45.283 34.2454 45.7657Z" fill="#4B3425"/>
<path d="M42.7952 44.8358C43.2518 46.1318 43.7173 47.4278 44.1739 48.7238C44.353 49.2154 45.1408 49.0009 44.9618 48.5093C44.5052 47.2133 44.0396 45.9172 43.583 44.6212C43.4129 44.1297 42.6162 44.3442 42.7952 44.8358Z" fill="#4B3425"/>
<path d="M43.6817 49.5641C44.4874 49.1083 45.2932 48.6435 46.1079 48.1876C46.5644 47.9284 46.1526 47.2223 45.696 47.4815C44.8903 47.9374 44.0845 48.4022 43.2699 48.858C42.8043 49.1172 43.2161 49.8233 43.6817 49.5641Z" fill="#4B3425"/>
<path d="M39.9572 41.207C41.7299 43.1108 44.1292 44.1297 46.7344 44.085C47.2626 44.0761 47.2626 43.2538 46.7344 43.2717C44.3351 43.3163 42.1775 42.3957 40.5392 40.635C40.1721 40.2417 39.5902 40.8227 39.9572 41.207Z" fill="#4B3425"/>
<path d="M36.9851 65.5185C36.9851 65.5185 37.3253 60.9781 38.6324 59.1011C40.8527 55.9102 41.739 55.7136 43.7175 54.5606C44.5412 54.0779 45.6871 53.8902 46.6451 53.917C47.594 53.9349 48.6057 54.6589 48.5788 55.6063C48.5609 56.5359 47.6567 57.1705 46.842 57.6174C43.243 59.6195 39.1696 61.4518 37.2626 65.1074L36.9851 65.5185Z" fill="#4B3425"/>
<path d="M49.2323 53.6402C49.7784 54.8289 49.7605 56.1607 49.2055 57.3494C48.9816 57.8231 49.6889 58.2343 49.9127 57.7606C50.611 56.2858 50.611 54.7127 49.9396 53.229C49.7158 52.7553 49.0174 53.1664 49.2323 53.6402Z" fill="#4B3425"/>
<path d="M15.0775 112.979C14.2181 124.455 14.8895 136.307 17.0829 147.614C17.1814 148.132 17.9692 147.909 17.8708 147.399C15.6863 136.173 15.0417 124.384 15.8922 112.979C15.937 112.452 15.1133 112.452 15.0775 112.979Z" fill="#4B3425"/>
<path d="M60.5839 59.7446C60.4317 59.7804 61.8015 62.6227 62.7594 64.7052C63.028 65.2772 63.2787 65.885 63.7711 66.2872C64.2545 66.6894 65.0245 66.8593 65.6691 66.5017C66.5017 66.0459 66.7434 64.9197 66.4121 64.1689C66.0719 63.4181 65.3378 62.9534 64.6305 62.5243C63.3055 61.711 60.5839 59.7446 60.5839 59.7446Z" fill="#A28FFF"/>
<path d="M84.6578 62.9888C84.5056 63.0245 85.8753 65.8668 86.8333 67.9494C87.1019 68.5214 87.3525 69.1292 87.8449 69.5314C88.3284 69.9336 89.0983 70.1034 89.7429 69.7459C90.5755 69.29 90.8172 68.1639 90.486 67.4131C90.1458 66.6623 89.4117 66.1975 88.7044 65.7685C87.3884 64.9551 84.6578 62.9888 84.6578 62.9888Z" fill="#A28FFF"/>
<path d="M22.7679 60.5132C22.6694 60.3971 20.6998 62.855 19.2405 64.6158C18.8377 65.1074 18.4079 65.599 18.2468 66.2067C18.0946 66.8235 18.2826 67.5832 18.8735 68.0122C19.6524 68.5664 20.7715 68.2893 21.2997 67.6636C21.8279 67.038 21.9353 66.171 22.0159 65.3487C22.177 63.8114 22.7679 60.5132 22.7679 60.5132Z" fill="#A28FFF"/>
<path d="M47.0654 47.2671C46.9132 47.2582 47.3966 50.3775 47.71 52.6388C47.7995 53.2645 47.8711 53.917 48.2203 54.4443C48.5695 54.9717 49.2588 55.347 49.975 55.1951C50.9061 54.9985 51.4612 53.9885 51.3627 53.1751C51.2553 52.3618 50.6912 51.7004 50.1362 51.0836C49.1066 49.9396 47.0654 47.2671 47.0654 47.2671Z" fill="#A28FFF"/>
<path d="M52.5266 38.2665C51.2642 34.0656 52.822 30.267 55.8211 27.2906C58.0951 25.0293 61.148 23.0719 62.6521 20.1492C63.9591 17.6197 62.4999 15.135 60.0558 14.0356C58.5428 13.3563 56.8507 13.2937 55.2303 13.1597C53.9321 13.0524 52.2759 13.2312 52.6788 11.381C52.9026 10.3531 53.4308 9.19119 54.6304 9.08394C55.1497 9.03925 55.1587 8.21695 54.6304 8.27058C53.3771 8.37783 52.5982 9.19119 52.1505 10.3263C51.7656 11.2916 51.3269 12.9451 52.4818 13.5529C53.1264 13.8926 54.0396 13.8836 54.7468 13.9462C56.0271 14.0624 57.3252 14.0892 58.5696 14.402C60.8257 14.9651 63.1086 16.8421 62.1059 19.3894C61.3718 21.2396 59.5992 22.7501 58.1578 24.0551C56.7343 25.3421 55.2392 26.5845 54.0038 28.0682C51.5328 31.0267 50.6286 34.7717 51.7477 38.4899C51.882 38.9815 52.6788 38.767 52.5266 38.2665Z" fill="#4B3425"/>
<path d="M15.7311 39.205C17.083 39.0888 17.9961 38.2933 18.8377 37.2833C19.7956 36.1482 20.8252 34.8343 20.9953 33.3149C21.2997 30.5262 18.5065 28.8012 16.0355 28.6939C13.3228 28.5867 9.26728 29.5698 7.53941 31.8669C6.89482 32.725 6.41137 34.0567 7.08282 35.0488C7.61103 35.8354 8.6585 36.0588 9.41948 35.4868C9.8313 35.174 9.42842 34.4589 9.00765 34.7807C7.61998 35.8264 7.65579 33.2076 8.00495 32.6356C8.30038 32.1619 8.72116 31.7507 9.1688 31.4289C9.77758 30.991 10.4848 30.6871 11.1921 30.4368C13.0811 29.7575 15.3999 29.1319 17.3784 29.7218C19.4196 30.3206 20.7625 32.2155 19.8762 34.298C19.2227 35.8443 17.5575 38.2397 15.7311 38.3916C15.2119 38.4363 15.2119 39.2497 15.7311 39.205Z" fill="#4B3425"/>
</svg>
