<svg width="355" height="311" viewBox="0 0 355 311" fill="none" xmlns="http://www.w3.org/2000/svg">
<g opacity="0.1">
<path d="M321.697 95.3438C321.344 65.6813 302.628 40.6094 276.144 31.075C269.788 28.6032 263.078 32.4875 262.019 39.1969C259.194 52.2625 251.778 66.7407 235.888 80.5126C238.36 85.8095 239.419 91.8126 239.419 97.1095C239.419 100.641 239.066 103.819 238.713 106.997L236.594 116.531L230.591 115.119L231.65 106.291C231.65 103.466 231.65 100.288 231.297 97.8157C230.591 92.1657 228.825 87.2219 225.647 83.3376C222.469 79.4532 217.878 76.9813 212.935 75.5688C210.463 74.8626 207.638 74.5094 205.166 74.1563C201.988 78.0407 197.397 80.5126 192.1 80.5126C182.566 80.5126 174.797 72.7438 174.797 63.2094C174.797 53.6751 182.566 45.9063 192.1 45.9063C200.928 45.9063 208.344 52.6157 209.05 61.0907C211.875 61.7969 214.347 62.5032 217.172 63.5626C220.703 64.9751 223.882 66.7407 227.06 69.2126C243.657 55.0875 248.953 40.2563 249.307 27.5438C249.307 21.5407 246.481 16.2438 241.891 12.7125C230.591 4.59062 216.819 0 201.635 0C192.1 0 182.919 1.76563 174.444 5.29688C165.969 8.82813 158.553 13.7719 152.197 20.1282C150.785 21.5407 149.019 23.3063 147.606 25.0719C144.781 28.6031 142.31 32.1344 140.191 36.0188C137.366 40.9626 135.247 46.2594 133.835 51.9094C133.128 54.0282 132.775 56.5 132.422 58.6188C132.069 60.7375 132.069 62.5032 131.716 64.6219H138.778C140.897 64.6219 142.31 66.3876 142.31 68.1532V84.397C142.31 86.5157 144.075 87.9282 145.841 87.9282H162.085C164.203 87.9282 165.616 89.6938 165.616 91.4595V106.997C165.616 109.116 163.85 110.528 162.085 110.528H145.841C143.722 110.528 142.31 112.294 142.31 114.059V130.303C142.31 132.422 140.544 133.835 138.778 133.835H131.716C132.069 139.484 134.894 145.134 139.485 148.666C164.556 168.088 197.044 167.028 197.044 167.028C199.163 159.966 205.872 154.669 213.641 154.669C223.175 154.669 230.944 162.438 230.944 171.972C230.944 181.506 223.175 189.275 213.641 189.275C206.578 189.275 200.222 184.685 197.75 178.681C197.75 178.681 178.328 179.388 157.494 175.503C144.075 173.031 131.716 182.919 131.716 196.691V212.935H147.96C150.078 212.935 151.491 214.7 151.491 216.466V234.475C151.491 236.594 149.725 238.006 147.96 238.006H131.716V239.066C131.716 277.557 163.144 310.75 201.635 310.397C212.935 310.397 223.175 307.572 232.71 302.982C235.182 301.569 237.653 300.51 239.772 298.744C247.894 293.447 250.366 282.147 245.069 273.672C242.95 270.141 240.125 267.316 236.947 264.844C233.416 262.725 229.532 260.96 225.294 259.9C216.819 258.135 207.285 258.841 197.75 260.96L195.631 253.191C205.519 250.013 215.76 248.247 226.707 249.306C232.357 250.013 237.653 251.425 242.95 254.25C248.247 257.075 252.485 260.96 256.016 265.903C257.075 267.316 258.135 268.728 258.841 270.141C263.432 277.557 273.672 280.735 281.441 276.85C298.038 269.081 311.104 254.603 317.46 237.3C319.932 230.238 317.46 222.116 311.457 217.525C307.572 214.7 302.982 210.463 298.391 204.813C295.919 201.635 293.8 197.75 291.682 194.219C291.328 193.16 290.975 192.453 290.622 191.394C285.325 193.866 279.322 194.925 273.319 194.572C269.788 194.572 266.61 193.866 263.078 193.513L253.191 191.041L258.135 177.622L266.257 180.447C268.728 180.8 271.553 181.86 274.378 181.86C279.675 182.566 284.619 181.86 289.21 179.741C293.8 177.622 297.332 173.738 300.157 168.794C302.628 164.203 304.394 158.2 305.1 152.903L312.516 153.256C312.163 160.319 311.103 166.675 308.278 173.031C306.513 177.622 303.688 181.86 299.803 185.391C300.51 186.45 300.863 187.863 301.569 188.922C303.335 191.747 305.453 194.572 307.925 197.044C310.75 200.222 315.341 203.4 320.285 205.519C325.935 207.991 332.291 206.578 336.529 201.988C347.829 189.628 354.538 173.385 354.538 155.375C354.891 129.597 341.472 107.703 321.697 95.3438Z" fill="#A0A7F9"/>
<path d="M155.022 82.9844H138.425C136.306 82.9844 134.894 81.2188 134.894 79.4532V63.2094C134.894 61.0907 133.128 59.6782 131.362 59.6782H115.825C113.706 59.6782 112.294 61.4438 112.294 63.2094V79.4532C112.294 81.5719 110.528 82.9844 108.762 82.9844H92.5186C90.3998 82.9844 88.9873 84.7501 88.9873 86.5157V102.053C88.9873 104.172 90.7529 105.584 92.5186 105.584H108.762C110.881 105.584 112.294 107.35 112.294 109.116V125.359C112.294 127.478 114.059 128.891 115.825 128.891H131.362C133.481 128.891 134.894 127.125 134.894 125.359V109.116C134.894 106.997 136.659 105.584 138.425 105.584H154.669C156.787 105.584 158.2 103.819 158.2 102.053V86.5157C158.553 84.3969 156.787 82.9844 155.022 82.9844Z" fill="#A0A7F9"/>
<path d="M47.6719 185.744H37.4313C35.3125 185.744 33.9 183.978 33.9 182.213V171.972C33.9 169.853 32.1344 168.441 30.3687 168.441H20.8344C18.7156 168.441 17.3031 170.206 17.3031 171.972V182.213C17.3031 184.331 15.5375 185.744 13.7719 185.744H3.53125C1.4125 185.744 0 187.51 0 189.275V198.81C0 200.928 1.76563 202.341 3.53125 202.341H13.7719C15.8906 202.341 17.3031 204.106 17.3031 205.872V216.113C17.3031 218.231 19.0687 219.644 20.8344 219.644H30.3687C32.4875 219.644 33.9 217.878 33.9 216.113V205.872C33.9 203.753 35.6656 202.341 37.4313 202.341H47.6719C49.7907 202.341 51.2032 200.575 51.2032 198.81V189.275C51.2032 187.156 49.7907 185.744 47.6719 185.744Z" fill="#A0A7F9"/>
<path d="M72.7434 158.2V143.369C72.7434 141.25 74.509 139.838 76.2746 139.838H91.106C93.2247 139.838 94.6372 138.072 94.6372 136.306V122.181C94.6372 120.063 92.8716 118.65 91.106 118.65H76.2746C74.1559 118.65 72.7434 116.884 72.7434 115.119V100.288C72.7434 98.1688 70.9778 96.7563 69.2121 96.7563H55.0871C52.9684 96.7563 51.5559 98.5219 51.5559 100.288V115.119C51.5559 117.238 49.7902 118.65 48.0246 118.65H33.1934C31.0746 118.65 29.6621 120.416 29.6621 122.181V136.306C29.6621 138.425 31.4277 139.838 33.1934 139.838H48.0246C50.1434 139.838 51.5559 141.603 51.5559 143.369V158.2C51.5559 160.319 53.3215 161.731 55.0871 161.731H69.2121C70.9778 161.731 72.7434 159.966 72.7434 158.2Z" fill="#A0A7F9"/>
<path d="M140.544 207.285H121.829C119.71 207.285 118.297 205.519 118.297 203.753V185.038C118.297 182.919 116.532 181.506 114.766 181.506H96.7567C94.6379 181.506 93.2254 183.272 93.2254 185.038V203.753C93.2254 205.872 91.4598 207.285 89.6942 207.285H70.9785C68.8598 207.285 67.4473 209.05 67.4473 210.816V228.825C67.4473 230.944 69.2129 232.356 70.9785 232.356H89.6942C91.8129 232.356 93.2254 234.122 93.2254 235.888V254.603C93.2254 256.722 94.9911 258.135 96.7567 258.135H114.766C116.885 258.135 118.297 256.369 118.297 254.603V235.888C118.297 233.769 120.063 232.356 121.829 232.356H140.544C142.663 232.356 144.076 230.591 144.076 228.825V210.816C144.076 208.697 142.31 207.285 140.544 207.285Z" fill="#A0A7F9"/>
</g>
</svg>
